<?xml version="1.0" encoding="utf-8"?>
<!-- Generator: Adobe Illustrator 19.0.1, SVG Export Plug-In . SVG Version: 6.00 Build 0)  -->
<svg version="1.1" id="Layer_1" xmlns="http://www.w3.org/2000/svg" xmlns:xlink="http://www.w3.org/1999/xlink" x="0px" y="0px"
	 viewBox="0 0 841.9 595.3" style="enable-background:new 0 0 841.9 595.3;" xml:space="preserve">
<style type="text/css">
	.st0{fill:#E33B6C;}
	.st1{fill:#735E64;}
</style>
<g>
	<path class="st0" d="M52.6,177.7l32.6,69.8l33.2-69.8h23.1L86.5,293.5H71.1L17.2,177.7H52.6z"/>
	<path class="st1" d="M155.5,144.2c0-2.3,0.5-4.4,1.4-6.4c0.9-2,2.2-3.7,3.9-5.2c1.7-1.5,3.6-2.7,5.8-3.5c2.2-0.9,4.6-1.3,7.1-1.3
		c2.5,0,4.8,0.4,7.1,1.3c2.2,0.9,4.1,2,5.8,3.5c1.7,1.5,3,3.2,3.9,5.2c1,2,1.5,4.1,1.5,6.4c0,2.3-0.5,4.4-1.5,6.4
		c-1,2-2.3,3.7-3.9,5.2s-3.6,2.6-5.8,3.5c-2.2,0.9-4.6,1.3-7.1,1.3c-2.5,0-4.8-0.4-7.1-1.3c-2.2-0.9-4.1-2-5.8-3.5
		c-1.7-1.5-3-3.2-3.9-5.2C155.9,148.6,155.5,146.5,155.5,144.2z M156.9,185.8l33.7-9.3V291h-33.7V185.8z"/>
	<path class="st1" d="M291,236.4c-3.5-3-7.4-5.7-11.9-8.1c-4.5-2.4-9.1-4.5-13.8-6.5c-3.1-1.3-6-2.7-8.7-4.1c-2.7-1.5-5-3-6.9-4.6
		c-1.9-1.6-3.5-3.4-4.6-5.2c-1.1-1.9-1.7-3.9-1.7-6c0-1.7,0.4-3.1,1.3-4.5c0.4-0.6,0.8-1.1,1.3-1.6c0.2-1,0.8-2,1.7-2.9
		c2.7-2.5,5.7-4.7,8.9-6.6c2.9-2.9,6.2-5.3,9.7-7.4c0.1-0.1,0.3-0.2,0.4-0.3c-3.5-0.6-7.4-0.9-11.7-0.9c-5.9,0-11.4,0.8-16.3,2.3
		c-4.9,1.5-9.2,3.7-12.7,6.4c-3.5,2.8-6.3,6.1-8.2,10c-2,3.9-3,8.2-3,12.9c0,5,1.1,9.3,3.2,13.1c2.1,3.8,5,7.1,8.4,10.1
		c3.5,2.9,7.4,5.5,11.8,7.8c4.4,2.3,8.7,4.4,13.1,6.3c2.8,1.2,5.4,2.6,7.8,4c2.4,1.4,4.5,3,6.2,4.6c1.7,1.7,3.1,3.5,4.1,5.6
		c1,2.1,1.5,4.4,1.5,7.1c0,1.6-0.4,3.1-1.1,4.5c-0.8,1.4-1.8,2.6-3.2,3.6c-1.4,1-3,1.9-5,2.5c-1.9,0.6-4.1,0.9-6.4,0.9
		c-5.5,0-10.1-1.7-13.8-5.1c-3.7-3.4-6.5-8.1-8.5-14.2l-19.2,7.4c1.7,3,3.6,6.1,5.8,9.2c2.2,3.1,4.9,5.9,8.3,8.4
		c3.4,2.5,7.4,4.6,12.3,6.2c4.8,1.6,10.7,2.4,17.6,2.4c8.2,0,15.1-0.9,20.8-2.7c5.7-1.8,10.4-4.3,13.9-7.4c3.6-3.1,6.2-6.8,7.8-11
		c1.6-4.2,2.4-8.7,2.4-13.6c0-4.6-1.1-8.7-3.2-12.3C297.2,242.8,294.4,239.4,291,236.4z"/>
	<path class="st1" d="M356.9,208.3v49.8c0,2.2,0.4,4.3,1.3,6.2c0.9,1.9,2,3.5,3.5,4.9c1.5,1.4,3.2,2.5,5.2,3.3s4.1,1.2,6.3,1.2
		c1.2,0,2.7-0.3,4.3-1c1.6-0.7,3.2-1.7,4.8-2.9c1.6-1.2,3.2-2.7,4.8-4.4c1.6-1.7,3-3.5,4.2-5.5v-80.2H425V291h-33.8v-10.4
		c-4.4,3.8-9.1,6.8-14.2,9.1c-5,2.2-9.9,3.4-14.7,3.4c-5.5,0-10.7-0.9-15.4-2.7s-8.9-4.3-12.4-7.5c-3.5-3.1-6.3-6.8-8.3-11.1
		c-2-4.3-3-8.8-3-13.6v-78.4L356.9,208.3z"/>
	<path class="st1" d="M540,291h-33.9v-8.9c-1.9,1.6-3.7,3-5.5,4.4c-1.8,1.3-3.8,2.5-6,3.5c-2.2,1-4.6,1.8-7.4,2.3
		c-2.8,0.6-6,0.8-9.8,0.8c-5.1,0-9.7-0.7-13.8-2.2c-4.1-1.5-7.6-3.5-10.5-6.1c-2.9-2.6-5.1-5.7-6.6-9.2c-1.5-3.5-2.3-7.3-2.3-11.4
		c0-4.3,0.8-8.1,2.4-11.6c1.6-3.4,3.8-6.5,6.6-9.3c2.8-2.8,6.1-5.3,9.8-7.5c3.8-2.2,7.8-4.2,12.1-6c4.3-1.8,8.8-3.5,13.4-5
		c4.6-1.5,9.2-3,13.7-4.5l3.7-0.8v-11.1c0-3.5-0.4-6.5-1.1-9c-0.7-2.5-1.7-4.5-3-6.1c-1.3-1.6-2.8-2.7-4.7-3.4c-1.8-0.7-3.9-1-6.2-1
		c-2.7,0-4.9,0.3-6.7,1c-1.8,0.7-3.2,1.6-4.4,2.9c-1.1,1.2-1.9,2.6-2.4,4.2c-0.5,1.6-0.7,3.3-0.7,5.1c0,2.1-0.2,4.2-0.7,6.1
		c-0.5,1.9-1.2,3.6-2.4,5.1c-1.1,1.5-2.7,2.7-4.7,3.6c-2,0.9-4.5,1.3-7.6,1.3c-2.4,0-4.5-0.4-6.5-1.1c-2-0.7-3.6-1.7-5-3
		c-1.4-1.3-2.5-2.8-3.3-4.6c-0.8-1.8-1.2-3.6-1.2-5.7c0-3.9,1.3-7.4,3.9-10.7c2.6-3.3,6.2-6.1,10.6-8.6c4.5-2.4,9.6-4.3,15.4-5.7
		c5.8-1.3,12-2,18.5-2c7.9,0,14.8,0.7,20.6,2.2c5.8,1.5,10.5,3.5,14.3,6.1c3.7,2.6,6.5,5.8,8.3,9.5c1.8,3.7,2.7,7.9,2.7,12.5V291z
		 M506.1,233.5c-3.3,1.4-6.5,3-9.9,4.8c-3.3,1.8-6.3,3.8-9,6c-2.7,2.2-4.9,4.5-6.6,6.9c-1.7,2.5-2.5,5-2.5,7.7
		c0,2.1,0.3,4.2,0.8,6.1c0.6,1.9,1.3,3.6,2.3,5c1,1.4,2.1,2.5,3.3,3.4c1.2,0.8,2.5,1.2,3.9,1.2c2.7,0,5.5-0.8,8.3-2.5
		c2.9-1.7,6-3.8,9.4-6.4V233.5z"/>
	<path class="st1" d="M604.1,291h-33.5V135l33.5-9.3V291z"/>
</g>
<g>
	<path class="st1" d="M105.7,530.9c-13.5,0-26.2-2.7-38-8c-11.9-5.3-22.2-12.6-31-21.9c-8.8-9.2-15.7-20.1-20.8-32.5
		c-5.1-12.4-7.6-25.7-7.6-39.9c0-15.7,2.8-30.4,8.4-44.1c5.6-13.7,13.3-25.7,23-36c9.8-10.3,21.1-18.4,34.1-24.3
		c13-5.9,26.9-8.9,41.8-8.9c11.6,0,22.2,1.3,32,3.8c9.8,2.5,18.2,6,25.2,10.4c7.1,4.4,12.6,9.7,16.6,15.7c4,6,6,12.5,6,19.4
		c0,3.1-0.8,6-2.4,8.8c-1.6,2.8-3.7,5.2-6.3,7.2c-2.6,2.1-5.5,3.7-8.8,4.9c-3.3,1.2-6.6,1.8-9.9,1.8c-3.7,0-7.1-0.7-10-2
		c-3-1.3-5.5-3.1-7.6-5.2c-2.1-2.1-3.7-4.5-4.8-7.2c-1.1-2.7-1.6-5.5-1.6-8.3c0-4.7-0.5-9.2-1.5-13.4c-1-4.2-2.8-7.8-5.4-10.8
		c-2.6-3-6.1-5.4-10.6-7.1c-4.5-1.7-10.2-2.6-17.1-2.6c-9.4,0-17.8,1.9-25.2,5.7c-7.4,3.8-13.7,8.9-18.9,15.3
		c-5.1,6.4-9,14-11.7,22.6c-2.7,8.7-4,17.9-4,27.6c0,13.2,1.7,25.7,5.2,37.5c3.5,11.8,8.3,22.1,14.6,31c6.3,8.9,13.9,15.9,22.7,21.1
		c8.9,5.2,18.7,7.8,29.7,7.8c9.6,0,18-1.5,25-4.5c7.1-3,13.2-7.1,18.4-12.2c5.2-5.1,9.7-11.1,13.4-17.9c3.7-6.8,7.1-14,10-21.6
		l12.3,5c-3.5,13-8.2,24.6-14.1,34.8c-5.9,10.3-12.9,18.9-20.9,26c-8,7.1-17.1,12.5-27.1,16.2C128.4,529,117.5,530.9,105.7,530.9z"
		/>
	<path class="st0" d="M826.5,344.7c-4-6-9.5-11.3-16.6-15.7c-7.1-4.4-15.5-7.9-25.2-10.4c-5.6-1.4-11.6-2.5-17.8-3.1
		c0.2,0.9,0.4,1.8,0.5,2.7c0.4,2.8,0.4,5.5,0.1,8.2c1.6,1.1,3.2,2.4,4.6,3.8c1.8,2.3,3.5,4.5,5.3,6.8c2.5,3.9,3.8,8,4,12.5
		c0.9,3.9,0.8,7.7-0.1,11.6c0,0.1,0,0.2,0,0.2c0,1.3-0.1,2.5-0.2,3.7c0.1,2.5,0.6,5,1.6,7.4c1.1,2.7,2.7,5.1,4.8,7.2
		c2.1,2.1,4.7,3.9,7.6,5.2c3,1.3,6.3,2,10,2c3.3,0,6.6-0.6,9.9-1.8c3.3-1.2,6.2-2.9,8.8-4.9c2.6-2.1,4.7-4.5,6.3-7.2
		c1.6-2.8,2.4-5.7,2.4-8.8C832.4,357.2,830.5,350.7,826.5,344.7z"/>
	<path class="st0" d="M280.1,369.6v97.2c0,5.1,1.2,10,3.6,14.5c2.4,4.6,5.6,8.5,9.7,11.8c4.1,3.3,8.9,6,14.4,8c5.5,2,11.4,3,17.7,3
		c4.1,0,8.5-0.9,13.1-2.6c4.6-1.7,9.1-4.1,13.6-7.2c4.4-3.1,8.6-6.6,12.5-10.7c3.9-4,7.2-8.4,9.7-13V319.7h41v206.8h-41v-38.7
		c-3.6,5.9-8.1,11.5-13.6,16.8c-5.5,5.3-11.4,9.9-17.7,13.8c-6.4,3.9-12.9,7-19.6,9.2c-6.7,2.2-13.1,3.4-19.2,3.4
		c-9,0-17.5-1.7-25.4-5.1c-8-3.4-14.9-8-20.8-13.8c-5.9-5.8-10.6-12.5-14-20.3c-3.4-7.8-5.1-16.1-5.1-24.9V319.7L280.1,369.6z"/>
	<path class="st0" d="M555.2,530.9c-14,0-27.1-2.6-39.4-7.9c-12.3-5.3-23-12.4-32.2-21.5c-9.2-9-16.4-19.6-21.8-31.8
		c-5.3-12.1-8-25.1-8-39c0-16.6,2.4-31.9,7.3-46c4.9-14.1,11.7-26.3,20.6-36.6c8.9-10.3,19.5-18.3,32.1-24.1
		c12.5-5.8,26.4-8.7,41.7-8.7c13.6,0,26.1,2.4,37.4,7.1c11.3,4.8,21,11.1,29.1,19.2c8.1,8,14.4,17.3,18.9,27.8
		c4.5,10.5,6.7,21.6,6.7,33.1H493.4c0,13.9,1.8,26.7,5.4,38.6c3.6,11.9,8.6,22.1,15,30.7c6.4,8.6,14.1,15.3,23.1,20.2
		c9,4.9,18.8,7.3,29.5,7.3c9,0,17.6-1.4,25.8-4.3c8.2-2.9,15.7-6.7,22.3-11.4c6.7-4.7,12.4-10.1,17-16.2c4.7-6.1,8-12.4,9.9-18.8
		l11.7,5.2c-3,10.7-7.7,20.6-14.3,29.9c-6.6,9.3-14.3,17.4-23.1,24.4c-8.8,6.9-18.4,12.4-28.9,16.5
		C576.4,528.9,565.9,530.9,555.2,530.9z M596.2,386.1c0-7.8-1.4-15.1-4.1-21.9c-2.8-6.7-6.5-12.6-11.4-17.5
		c-4.8-4.9-10.5-8.8-16.9-11.6c-6.5-2.8-13.4-4.2-20.9-4.2c-6.2,0-12.1,1.4-17.8,4.2c-5.7,2.8-10.8,6.7-15.2,11.6
		c-4.4,4.9-8.1,10.7-11,17.4c-2.9,6.7-4.7,14-5.3,21.9L596.2,386.1z"/>
	<path class="st0" d="M757.8,516.7c5.6,0,10.8-0.9,15.6-2.6c4.7-1.7,8.8-4,12.2-6.8c3.4-2.8,6.1-6.1,8-9.8c1.9-3.7,2.9-7.5,2.9-11.4
		c0-6.3-1.6-11.8-4.7-16.5c-3.1-4.7-7.3-8.9-12.5-12.7c-5.2-3.8-11.1-7.2-17.8-10.3c-6.7-3.1-13.4-6.3-20.3-9.5
		c-6.9-3.3-13.6-6.8-20.3-10.6c-6.7-3.8-12.6-8.1-17.8-13.1c-5.2-4.9-9.4-10.7-12.5-17.1c-3.1-6.5-4.7-14.2-4.7-23
		c0-8.3,1.8-16,5.3-23.1c3.5-7.1,8.4-13.2,14.6-18.3c6.2-5.1,13.7-9.1,22.3-12c8.7-2.9,18.1-4.3,28.4-4.3c6.8,0,13.2,0.5,19.3,1.4
		c6,1,11.9,2.8,17.6,5.6c5.7,2.8,11.4,6.6,17.1,11.6c5.7,5,11.6,11.6,17.8,19.6l-15,13.5c-7.8-12.8-16.6-22.4-26.3-28.7
		c-9.7-6.3-20.1-9.4-31.1-9.4c-5.8,0-11.1,0.7-16,2.2c-4.9,1.5-9,3.5-12.5,6s-6.2,5.4-8.1,8.8c-1.9,3.3-2.9,6.9-2.9,10.6
		c0,6.2,1.7,11.6,5.2,16.2c3.5,4.6,8,8.8,13.7,12.5c5.6,3.7,12.1,7.2,19.3,10.3c7.2,3.1,14.6,6.4,22.1,9.6c7.6,3.3,15,6.8,22.1,10.5
		c7.2,3.7,13.6,8.1,19.3,13c5.6,4.9,10.2,10.7,13.7,17.1c3.5,6.5,5.2,14,5.2,22.6c0,8.7-1.6,16.9-4.9,24.5
		c-3.3,7.6-8.2,14.2-14.7,19.8c-6.5,5.6-14.8,10-24.7,13.2c-9.9,3.2-21.5,4.8-34.8,4.8c-6,0-12.2-0.5-18.6-1.4
		c-6.4-1-12.8-2.8-19.3-5.6c-6.5-2.8-13-6.6-19.4-11.6c-6.5-5-12.8-11.6-19-19.6l16.8-15.2c5,7.1,9.8,13.1,14.4,18
		c4.6,4.9,9.3,9,14,12.1c4.7,3.1,9.6,5.5,14.6,6.9C746.4,515.9,751.9,516.7,757.8,516.7z"/>
</g>
<path class="st0" d="M572,217.1"/>
<path class="st0" d="M726.5,92.4c-58.6,0-106.2,47.5-106.2,106.2s47.5,106.2,106.2,106.2s106.2-47.5,106.2-106.2
	S785.1,92.4,726.5,92.4z M725.7,154.4c33.4,0,60.6,14.7,60.6,15.5s-27.1-11.5-60.6-11.5s-60.6,12.3-60.6,11.5
	S692.2,154.4,725.7,154.4z M725.7,145.7c23.8,0,43.2,10.5,43.2,11c0,0.6-19.3-8.2-43.2-8.2s-43.2,8.8-43.2,8.2
	C682.5,156.1,701.8,145.7,725.7,145.7z M725.7,123.7c16.9,0,30.7,21.5,30.7,22c0,0.6-13.7-8.2-30.7-8.2s-30.7,8.8-30.7,8.2
	C695,145.1,708.7,123.7,725.7,123.7z M726.8,166c50.8,0,92.1,22.3,92.1,23.6s-41.2-17.5-92.1-17.5c-50.8,0-92.1,18.7-92.1,17.5
	S675.9,166,726.8,166z M669.2,248.9c-11.4,0-20.7-9.3-20.7-20.7c0-11.4,9.3-20.7,20.7-20.7c11.4,0,20.7,9.3,20.7,20.7
	C689.9,239.6,680.6,248.9,669.2,248.9z M725.7,218.7c-25.7-49.7-101.3-7.5-101.3-11.2s46.2-28.2,102.2-28.2s100.6,24.5,100.5,28.2
	C826.8,216.7,777.9,319.5,725.7,218.7z"/>
</svg>
