<?xml version="1.0" encoding="utf-8"?>
<!-- Generator: Adobe Illustrator 19.0.1, SVG Export Plug-In . SVG Version: 6.00 Build 0)  -->
<svg version="1.1" id="Layer_1" xmlns="http://www.w3.org/2000/svg" xmlns:xlink="http://www.w3.org/1999/xlink" x="0px" y="0px"
	 viewBox="0 0 296.1 119.6" style="enable-background:new 0 0 296.1 119.6;" xml:space="preserve">
<style type="text/css">
	.st0{fill:#E33B6C;}
	.st1{fill:#735E64;}
	.st2{fill:#E43C6D;}
</style>
<g>
	<path class="st0" d="M132.9,31.8l9.2,19.7l9.4-19.7h6.5l-15.5,32.7h-4.4l-15.2-32.7H132.9z"/>
	<path class="st1" d="M161.9,22.4c0-0.6,0.1-1.2,0.4-1.8c0.3-0.6,0.6-1.1,1.1-1.5c0.5-0.4,1-0.8,1.6-1c0.6-0.2,1.3-0.4,2-0.4
		c0.7,0,1.4,0.1,2,0.4c0.6,0.2,1.2,0.6,1.6,1c0.5,0.4,0.8,0.9,1.1,1.5c0.3,0.6,0.4,1.2,0.4,1.8c0,0.6-0.1,1.2-0.4,1.8
		c-0.3,0.6-0.6,1.1-1.1,1.5c-0.5,0.4-1,0.7-1.6,1c-0.6,0.2-1.3,0.4-2,0.4c-0.7,0-1.4-0.1-2-0.4c-0.6-0.2-1.2-0.6-1.6-1
		c-0.5-0.4-0.8-0.9-1.1-1.5C162,23.6,161.9,23,161.9,22.4z M162.3,34.1l9.5-2.6v32.3h-9.5V34.1z"/>
	<path class="st1" d="M200.1,48.4c-1-0.8-2.1-1.6-3.3-2.3c-1.3-0.7-2.6-1.3-3.9-1.8c-0.9-0.4-1.7-0.8-2.4-1.2
		c-0.8-0.4-1.4-0.8-1.9-1.3c-0.5-0.5-1-1-1.3-1.5c-0.3-0.5-0.5-1.1-0.5-1.7c0-0.5,0.1-0.9,0.4-1.3c0.1-0.2,0.2-0.3,0.4-0.4
		c0.1-0.3,0.2-0.6,0.5-0.8c0.7-0.7,1.6-1.3,2.5-1.9c0.8-0.8,1.7-1.5,2.7-2.1c0,0,0.1-0.1,0.1-0.1c-1-0.2-2.1-0.3-3.3-0.3
		c-1.7,0-3.2,0.2-4.6,0.6c-1.4,0.4-2.6,1-3.6,1.8c-1,0.8-1.8,1.7-2.3,2.8c-0.6,1.1-0.8,2.3-0.8,3.6c0,1.4,0.3,2.6,0.9,3.7
		c0.6,1.1,1.4,2,2.4,2.8c1,0.8,2.1,1.6,3.3,2.2c1.2,0.6,2.5,1.2,3.7,1.8c0.8,0.4,1.5,0.7,2.2,1.1c0.7,0.4,1.3,0.8,1.8,1.3
		c0.5,0.5,0.9,1,1.2,1.6c0.3,0.6,0.4,1.2,0.4,2c0,0.4-0.1,0.9-0.3,1.3c-0.2,0.4-0.5,0.7-0.9,1c-0.4,0.3-0.9,0.5-1.4,0.7
		c-0.5,0.2-1.2,0.3-1.8,0.3c-1.6,0-2.9-0.5-3.9-1.4c-1-1-1.8-2.3-2.4-4l-5.4,2.1c0.5,0.9,1,1.7,1.6,2.6c0.6,0.9,1.4,1.7,2.3,2.4
		c0.9,0.7,2.1,1.3,3.5,1.7c1.4,0.4,3,0.7,5,0.7c2.3,0,4.3-0.3,5.9-0.8c1.6-0.5,2.9-1.2,3.9-2.1c1-0.9,1.7-1.9,2.2-3.1
		c0.4-1.2,0.7-2.5,0.7-3.8c0-1.3-0.3-2.4-0.9-3.5C201.9,50.2,201.1,49.3,200.1,48.4z"/>
	<path class="st1" d="M218.7,40.5v14.1c0,0.6,0.1,1.2,0.4,1.7c0.2,0.5,0.6,1,1,1.4c0.4,0.4,0.9,0.7,1.5,0.9c0.6,0.2,1.1,0.4,1.8,0.4
		c0.4,0,0.8-0.1,1.2-0.3c0.4-0.2,0.9-0.5,1.4-0.8c0.5-0.4,0.9-0.8,1.3-1.2c0.4-0.5,0.8-1,1.2-1.5V32.4h9.5v31.4h-9.5v-2.9
		c-1.2,1.1-2.6,1.9-4,2.6c-1.4,0.6-2.8,1-4.1,1c-1.6,0-3-0.3-4.4-0.8c-1.3-0.5-2.5-1.2-3.5-2.1c-1-0.9-1.8-1.9-2.3-3.1
		c-0.6-1.2-0.8-2.5-0.8-3.8V32.4L218.7,40.5z"/>
	<path class="st1" d="M270.4,63.8h-9.6v-2.5c-0.5,0.4-1,0.9-1.5,1.2c-0.5,0.4-1.1,0.7-1.7,1c-0.6,0.3-1.3,0.5-2.1,0.7
		c-0.8,0.2-1.7,0.2-2.8,0.2c-1.4,0-2.7-0.2-3.9-0.6c-1.2-0.4-2.1-1-3-1.7c-0.8-0.7-1.4-1.6-1.9-2.6c-0.4-1-0.6-2.1-0.6-3.2
		c0-1.2,0.2-2.3,0.7-3.3c0.5-1,1.1-1.8,1.9-2.6c0.8-0.8,1.7-1.5,2.8-2.1c1.1-0.6,2.2-1.2,3.4-1.7c1.2-0.5,2.5-1,3.8-1.4
		c1.3-0.4,2.6-0.8,3.9-1.3l1.1-0.2v-3.1c0-1-0.1-1.8-0.3-2.5c-0.2-0.7-0.5-1.3-0.8-1.7c-0.4-0.4-0.8-0.8-1.3-1
		c-0.5-0.2-1.1-0.3-1.7-0.3c-0.8,0-1.4,0.1-1.9,0.3c-0.5,0.2-0.9,0.5-1.2,0.8c-0.3,0.3-0.5,0.7-0.7,1.2c-0.1,0.4-0.2,0.9-0.2,1.4
		c0,0.6-0.1,1.2-0.2,1.7c-0.1,0.5-0.4,1-0.7,1.4c-0.3,0.4-0.8,0.8-1.3,1c-0.6,0.3-1.3,0.4-2.1,0.4c-0.7,0-1.3-0.1-1.8-0.3
		c-0.6-0.2-1-0.5-1.4-0.8c-0.4-0.4-0.7-0.8-0.9-1.3c-0.2-0.5-0.3-1-0.3-1.6c0-1.1,0.4-2.1,1.1-3c0.7-0.9,1.7-1.7,3-2.4
		c1.3-0.7,2.7-1.2,4.4-1.6c1.6-0.4,3.4-0.6,5.2-0.6c2.2,0,4.2,0.2,5.8,0.6c1.6,0.4,3,1,4,1.7c1.1,0.7,1.8,1.6,2.3,2.7
		c0.5,1.1,0.8,2.2,0.8,3.5V63.8z M260.8,47.6c-0.9,0.4-1.8,0.8-2.8,1.4c-0.9,0.5-1.8,1.1-2.5,1.7c-0.8,0.6-1.4,1.3-1.9,2
		c-0.5,0.7-0.7,1.4-0.7,2.2c0,0.6,0.1,1.2,0.2,1.7c0.2,0.5,0.4,1,0.6,1.4c0.3,0.4,0.6,0.7,0.9,1c0.3,0.2,0.7,0.4,1.1,0.4
		c0.8,0,1.5-0.2,2.4-0.7c0.8-0.5,1.7-1.1,2.6-1.8V47.6z"/>
	<path class="st1" d="M288.4,59.1l-9.4,4.7v-44l9.4-7.4V59.1z"/>
</g>
<g>
	<path class="st1" d="M145.5,117.6c-2.7,0-5.3-0.5-7.7-1.6c-2.4-1.1-4.5-2.6-6.3-4.4c-1.8-1.9-3.2-4.1-4.2-6.6
		c-1-2.5-1.5-5.2-1.5-8.1c0-3.2,0.6-6.2,1.7-9c1.1-2.8,2.7-5.2,4.7-7.3c2-2.1,4.3-3.7,6.9-4.9c2.6-1.2,5.5-1.8,8.5-1.8
		c2.3,0,4.5,0.3,6.5,0.8c2,0.5,3.7,1.2,5.1,2.1c1.4,0.9,2.6,2,3.4,3.2c0.8,1.2,1.2,2.5,1.2,4c0,0.6-0.2,1.2-0.5,1.8
		c-0.3,0.6-0.8,1.1-1.3,1.5c-0.5,0.4-1.1,0.8-1.8,1c-0.7,0.2-1.3,0.4-2,0.4c-0.8,0-1.4-0.1-2-0.4c-0.6-0.3-1.1-0.6-1.5-1.1
		c-0.4-0.4-0.8-0.9-1-1.5c-0.2-0.5-0.3-1.1-0.3-1.7c0-1-0.1-1.9-0.3-2.7c-0.2-0.8-0.6-1.6-1.1-2.2c-0.5-0.6-1.2-1.1-2.2-1.4
		c-0.9-0.4-2.1-0.5-3.5-0.5c-1.9,0-3.6,0.4-5.1,1.2c-1.5,0.8-2.8,1.8-3.8,3.1c-1,1.3-1.8,2.8-2.4,4.6c-0.5,1.8-0.8,3.6-0.8,5.6
		c0,2.7,0.4,5.2,1.1,7.6c0.7,2.4,1.7,4.5,3,6.3c1.3,1.8,2.8,3.2,4.6,4.3c1.8,1.1,3.8,1.6,6,1.6c2,0,3.7-0.3,5.1-0.9
		c1.4-0.6,2.7-1.4,3.7-2.5c1.1-1,2-2.3,2.7-3.6c0.8-1.4,1.4-2.8,2-4.4l2.5,1c-0.7,2.6-1.7,5-2.9,7.1c-1.2,2.1-2.6,3.8-4.2,5.3
		c-1.6,1.4-3.5,2.5-5.5,3.3C150.1,117.2,147.9,117.6,145.5,117.6z"/>
	<path class="st0" d="M292,79.8c-0.8-1.2-1.9-2.3-3.4-3.2c-1.4-0.9-3.1-1.6-5.1-2.1c-1.1-0.3-2.4-0.5-3.6-0.6c0,0.2,0.1,0.4,0.1,0.5
		c0.1,0.6,0.1,1.1,0,1.7c0.3,0.2,0.6,0.5,0.9,0.8c0.4,0.5,0.7,0.9,1.1,1.4c0.5,0.8,0.8,1.6,0.8,2.5c0.2,0.8,0.2,1.6,0,2.4
		c0,0,0,0,0,0c0,0.3,0,0.5,0,0.8c0,0.5,0.1,1,0.3,1.5c0.2,0.5,0.5,1,1,1.5c0.4,0.4,0.9,0.8,1.5,1.1c0.6,0.3,1.3,0.4,2,0.4
		c0.7,0,1.3-0.1,2-0.4c0.7-0.2,1.3-0.6,1.8-1c0.5-0.4,0.9-0.9,1.3-1.5c0.3-0.6,0.5-1.2,0.5-1.8C293.2,82.3,292.8,81,292,79.8z"/>
	<path class="st0" d="M180.9,84.8v19.7c0,1,0.2,2,0.7,3c0.5,0.9,1.1,1.7,2,2.4c0.8,0.7,1.8,1.2,2.9,1.6c1.1,0.4,2.3,0.6,3.6,0.6
		c0.8,0,1.7-0.2,2.7-0.5c0.9-0.4,1.9-0.8,2.8-1.5c0.9-0.6,1.7-1.3,2.5-2.2c0.8-0.8,1.5-1.7,2-2.6V74.7h8.3v42h-8.3v-7.9
		c-0.7,1.2-1.6,2.3-2.8,3.4c-1.1,1.1-2.3,2-3.6,2.8c-1.3,0.8-2.6,1.4-4,1.9c-1.4,0.5-2.7,0.7-3.9,0.7c-1.8,0-3.5-0.3-5.2-1
		c-1.6-0.7-3-1.6-4.2-2.8c-1.2-1.2-2.1-2.5-2.8-4.1c-0.7-1.6-1-3.3-1-5.1V74.7L180.9,84.8z"/>
	<path class="st0" d="M236.8,117.6c-2.8,0-5.5-0.5-8-1.6c-2.5-1.1-4.7-2.5-6.5-4.4c-1.9-1.8-3.3-4-4.4-6.5c-1.1-2.5-1.6-5.1-1.6-7.9
		c0-3.4,0.5-6.5,1.5-9.4c1-2.9,2.4-5.3,4.2-7.4c1.8-2.1,4-3.7,6.5-4.9c2.5-1.2,5.4-1.8,8.5-1.8c2.8,0,5.3,0.5,7.6,1.4
		c2.3,1,4.3,2.3,5.9,3.9c1.6,1.6,2.9,3.5,3.8,5.7c0.9,2.1,1.4,4.4,1.4,6.7h-31.3c0,2.8,0.4,5.4,1.1,7.8c0.7,2.4,1.7,4.5,3.1,6.2
		c1.3,1.7,2.9,3.1,4.7,4.1c1.8,1,3.8,1.5,6,1.5c1.8,0,3.6-0.3,5.2-0.9c1.7-0.6,3.2-1.4,4.5-2.3c1.4-1,2.5-2,3.5-3.3
		c1-1.2,1.6-2.5,2-3.8l2.4,1.1c-0.6,2.2-1.6,4.2-2.9,6.1c-1.3,1.9-2.9,3.5-4.7,4.9c-1.8,1.4-3.7,2.5-5.9,3.3
		C241.2,117.2,239,117.6,236.8,117.6z M245.2,88.2c0-1.6-0.3-3.1-0.8-4.4c-0.6-1.4-1.3-2.6-2.3-3.6c-1-1-2.1-1.8-3.4-2.4
		c-1.3-0.6-2.7-0.9-4.2-0.9c-1.3,0-2.5,0.3-3.6,0.9c-1.2,0.6-2.2,1.4-3.1,2.3c-0.9,1-1.6,2.2-2.2,3.5c-0.6,1.4-0.9,2.9-1.1,4.4
		L245.2,88.2z"/>
	<path class="st0" d="M278,114.7c1.1,0,2.2-0.2,3.2-0.5c1-0.4,1.8-0.8,2.5-1.4c0.7-0.6,1.2-1.2,1.6-2c0.4-0.8,0.6-1.5,0.6-2.3
		c0-1.3-0.3-2.4-1-3.3c-0.6-1-1.5-1.8-2.5-2.6c-1.1-0.8-2.3-1.5-3.6-2.1c-1.4-0.6-2.7-1.3-4.1-1.9c-1.4-0.7-2.8-1.4-4.1-2.2
		c-1.4-0.8-2.6-1.7-3.6-2.7c-1.1-1-1.9-2.2-2.5-3.5c-0.6-1.3-1-2.9-1-4.7c0-1.7,0.4-3.3,1.1-4.7c0.7-1.4,1.7-2.7,3-3.7
		c1.3-1,2.8-1.9,4.5-2.4c1.8-0.6,3.7-0.9,5.8-0.9c1.4,0,2.7,0.1,3.9,0.3c1.2,0.2,2.4,0.6,3.6,1.1c1.2,0.6,2.3,1.4,3.5,2.4
		c1.2,1,2.4,2.3,3.6,4l-3.1,2.7c-1.6-2.6-3.4-4.6-5.3-5.8c-2-1.3-4.1-1.9-6.3-1.9c-1.2,0-2.3,0.2-3.2,0.4c-1,0.3-1.8,0.7-2.5,1.2
		c-0.7,0.5-1.3,1.1-1.6,1.8c-0.4,0.7-0.6,1.4-0.6,2.2c0,1.3,0.4,2.3,1.1,3.3c0.7,0.9,1.6,1.8,2.8,2.5c1.1,0.8,2.5,1.5,3.9,2.1
		c1.5,0.6,3,1.3,4.5,2c1.5,0.7,3,1.4,4.5,2.1c1.5,0.8,2.8,1.6,3.9,2.6c1.1,1,2.1,2.2,2.8,3.5c0.7,1.3,1.1,2.8,1.1,4.6
		c0,1.8-0.3,3.4-1,5c-0.7,1.6-1.7,2.9-3,4c-1.3,1.1-3,2-5,2.7c-2,0.7-4.4,1-7.1,1c-1.2,0-2.5-0.1-3.8-0.3c-1.3-0.2-2.6-0.6-3.9-1.1
		c-1.3-0.6-2.6-1.4-4-2.4c-1.3-1-2.6-2.3-3.9-4l3.4-3.1c1,1.4,2,2.7,2.9,3.7c0.9,1,1.9,1.8,2.8,2.5c1,0.6,1.9,1.1,3,1.4
		C275.7,114.5,276.8,114.7,278,114.7z"/>
</g>
<path class="st2" d="M61.4,1C29,1,2.6,27.3,2.6,59.8s26.3,58.8,58.8,58.8s58.8-26.3,58.8-58.8S93.9,1,61.4,1z M61,35.3
	c18.5,0,33.6,8.1,33.6,8.6s-15-6.4-33.6-6.4s-33.6,6.8-33.6,6.4S42.4,35.3,61,35.3z M61,30.5c13.2,0,23.9,5.8,23.9,6.1
	c0,0.3-10.7-4.5-23.9-4.5s-23.9,4.9-23.9,4.5C37.1,36.3,47.7,30.5,61,30.5z M61,18.3c9.4,0,17,11.9,17,12.2c0,0.3-7.6-4.5-17-4.5
	s-17,4.9-17,4.5C44,30.2,51.6,18.3,61,18.3z M61.6,41.8c28.1,0,51,12.4,51,13.1s-22.8-9.7-51-9.7c-28.1,0-51,10.4-51,9.7
	C10.6,54.2,33.4,41.8,61.6,41.8z M29.7,87.7c-6.3,0-11.5-5.2-11.5-11.5c0-6.3,5.2-11.5,11.5-11.5s11.5,5.2,11.5,11.5
	C41.2,82.5,36,87.7,29.7,87.7z M61,71C46.7,43.4,4.9,66.8,4.9,64.7c0-2,25.6-15.6,56.6-15.6s55.7,13.6,55.7,15.6
	C117,69.8,89.9,126.8,61,71z"/>
</svg>
